<svg xmlns="http://www.w3.org/2000/svg" width="20" height="20" viewBox="0 0 20 20"><path d="M6.8 10c0 1.8 1.4 3.2 3.2 3.2 1.8 0 3.2-1.4 3.2-3.2s-1.4-3.2-3.2-3.2-3.2 1.4-3.2 3.2zM4.5 8.8c0.5-2.5 2.8-4.4 5.5-4.4 1.5 0 2.9 0.6 4 1.6 0.5 0.5 1.2 0.5 1.7 0 0.5-0.5 0.5-1.2 0-1.7-1.4-1.4-3.4-2.3-5.7-2.3-3.6 0-6.6 2.4-7.6 5.6h-2.4v2.4h3.2c1 0 1.2-0.8 1.3-1.2zM16.8 10c-1 0-1.2 0.8-1.3 1.2-0.5 2.5-2.8 4.4-5.5 4.4-1.5 0-2.9-0.6-4-1.6-0.5-0.5-1.2-0.5-1.7 0s-0.5 1.2 0 1.7c1.4 1.4 3.4 2.3 5.7 2.3 3.6 0 6.6-2.4 7.6-5.6h2.4v-2.4h-3.2z"/></svg>